<svg xmlns="http://www.w3.org/2000/svg" width="144" height="144" viewBox="0 0 144 144"><g transform="translate(-1568 -1570)"><rect width="144" height="144" rx="12" transform="translate(1568 1570)" fill="#155ebd"/><g transform="translate(-220.62 96.266)"><path d="M-1142.694,350.746l.746.492a16.459,16.459,0,0,1,6.517,7.724,14.615,14.615,0,0,1-1.331,13.685,17.509,17.509,0,0,1-9.754,7.426,21.171,21.171,0,0,1-6.7,1.081q-10.14.006-20.279,0h-.762V326.648c.233-.015.447-.04.661-.04,5.633,0,11.266-.021,16.9.018a17.868,17.868,0,0,1,10.739,3.392,14.779,14.779,0,0,1,6.147,9.989,13.4,13.4,0,0,1-1.886,9.209c-.149.245-.3.491-.454.731S-1142.473,350.422-1142.694,350.746Zm-22.214,21.167c.182.009.377.027.573.027,3.644,0,7.289.019,10.933-.012a15.14,15.14,0,0,0,2.758-.278,9.266,9.266,0,0,0,5.954-3.757,5.627,5.627,0,0,0-.14-6.949,8.134,8.134,0,0,0-3.622-2.685,20.727,20.727,0,0,0-7.276-1.188c-2.827-.03-5.654-.008-8.481-.006-.236,0-.473.021-.69.031C-1165.072,357.71-1165.076,371.3-1164.907,371.913Zm0-24.192a2.69,2.69,0,0,0,.427.061c3.067-.028,6.137-.007,9.2-.112a6.815,6.815,0,0,0,5.085-2.483,4.937,4.937,0,0,0,.24-6.234,6.847,6.847,0,0,0-3.306-2.437,12.01,12.01,0,0,0-3.968-.626c-2.362-.026-4.724-.009-7.086-.005-.211,0-.422.036-.612.053C-1165.078,336.665-1165.059,347.159-1164.91,347.721Z" transform="translate(2972.878 1191.894)" fill="#fff"/><path d="M-866.795,381.152V326.645c.26-.016.475-.039.691-.039,5.633,0,11.266-.024,16.9.019a17.816,17.816,0,0,1,10.892,3.53,14.73,14.73,0,0,1,5.82,9.106,13.468,13.468,0,0,1-1.6,9.7c-.343.587-.717,1.156-1.112,1.79l.921.622a16.408,16.408,0,0,1,5.871,6.605,14.626,14.626,0,0,1-.921,14.708,17.423,17.423,0,0,1-9.711,7.378,21.339,21.339,0,0,1-6.767,1.087h-20.98Zm9.266-9.248c.286.014.5.033.717.033,3.577,0,7.154.02,10.731-.012a15.893,15.893,0,0,0,2.89-.279,9.207,9.207,0,0,0,6.065-3.917,5.613,5.613,0,0,0-.091-6.573,8.292,8.292,0,0,0-4.209-3.06,20.707,20.707,0,0,0-6.509-1.022c-3-.046-6.005-.014-9.008-.01a5.169,5.169,0,0,0-.586.068Zm.016-24.2a3.042,3.042,0,0,0,.483.078c3.089-.028,6.179-.008,9.265-.116a6.767,6.767,0,0,0,4.89-2.324,4.965,4.965,0,0,0,.139-6.7,6.986,6.986,0,0,0-3.122-2.147,12.454,12.454,0,0,0-4.036-.609c-2.3-.023-4.591-.008-6.886,0-.235,0-.469.033-.731.053Z" transform="translate(2750.339 1191.898)" fill="#fff"/><path d="M-1004.023,369.931h19.894a89.217,89.217,0,0,1,.062,9.178h-38.139c.187-.269.327-.484.479-.69q8.429-11.351,16.854-22.705c2.178-2.946,4.306-5.929,6.431-8.914a20.3,20.3,0,0,0,2.387-4.266,7.012,7.012,0,0,0,.555-4.133,6.232,6.232,0,0,0-4.73-4.929,7.46,7.46,0,0,0-5.4.625,14.334,14.334,0,0,0-4.521,3.511c-.614.694-1.194,1.419-1.791,2.128-.139.165-.283.326-.458.527l-7.142-5.6c.008-.1-.005-.15.016-.178a38.544,38.544,0,0,1,4.934-5.7,19.607,19.607,0,0,1,9.1-4.628c8.443-1.728,17.01,3.6,18.927,11.8a15.982,15.982,0,0,1-.8,9.8,31.366,31.366,0,0,1-3.824,6.866c-2.985,4.078-6.019,8.122-9.035,12.178q-1.64,2.206-3.288,4.4C-1003.655,369.4-1003.786,369.595-1004.023,369.931Z" transform="translate(2862.824 1193.896)" fill="#fff"/></g></g></svg>