<svg xmlns="http://www.w3.org/2000/svg" width="59.598" height="59.64" viewBox="0 0 59.598 59.64"><g transform="translate(888.277 -683.234)"><g transform="translate(-888.277 683.234)"><path d="M-829.015,786.391a8.66,8.66,0,0,0-8.4-6.615q-21.078-.019-42.157,0a8.554,8.554,0,0,0-8.629,8.206c-.151,5-.034,10.014-.034,15.021,0,.058.008.115.012.174a8.736,8.736,0,0,0,8.411,8.037c.579.014,1.158,0,1.766,0V801.9c-.383,0-.731.016-1.078,0a1.743,1.743,0,0,1-1.674-1.749,1.75,1.75,0,0,1,1.687-1.737c.174-.009.35,0,.524,0h40.061c1.4,0,2.205.641,2.205,1.746s-.8,1.741-2.2,1.749h-.549v9.27a8.912,8.912,0,0,0,10.087-6.684c.157-.655.205-1.335.3-2V788.508C-828.788,787.8-828.844,787.082-829.015,786.391Zm-44.537,4.326c-.912.011-1.824,0-2.736,0-.893,0-1.786.008-2.68,0a1.749,1.749,0,0,1-1.83-1.769,1.743,1.743,0,0,1,1.822-1.72q2.708-.016,5.415,0a1.742,1.742,0,0,1,1.83,1.769A1.746,1.746,0,0,1-873.551,790.717Z" transform="translate(888.277 -764.745)"/><path d="M-791.339,683.234c.467.113.939.211,1.4.341a8.657,8.657,0,0,1,6.3,7.8c.064,1.1.01,2.205.01,3.349h-38.8c-.513-4.657.6-9.1,5.992-11.062a16.831,16.831,0,0,1,1.678-.428Z" transform="translate(832.765 -683.234)" fill="#155ebd"/><path d="M-767.946,922.857v-.577h-31.882a2.507,2.507,0,0,0-.031.266c0,6.211-.02,12.419.009,18.63a3.436,3.436,0,0,0,3.649,3.542q12.285.007,24.57,0a4.349,4.349,0,0,0,.753-.048,3.514,3.514,0,0,0,2.93-3.764Q-767.941,931.881-767.946,922.857Zm-24.231,10.666a8.72,8.72,0,0,1,2.053-3.366,8.884,8.884,0,0,1,5.194-2.652,1.4,1.4,0,0,1,.515-1.667,1.336,1.336,0,0,1,.736-.221,1.337,1.337,0,0,1,.767.241,1.384,1.384,0,0,1,.484,1.64,8.937,8.937,0,0,1,5.929,3.518,8.618,8.618,0,0,1,1.312,2.476,1.5,1.5,0,0,1-1.421,1.984h-14.141A1.5,1.5,0,0,1-792.177,933.523Zm18.674,3.193a4.023,4.023,0,0,1-.985,1.217,3.618,3.618,0,0,1-2.315.778q-4.708,0-9.415,0c-1.592,0-3.184.023-4.776-.008a3.418,3.418,0,0,1-3.062-1.842c-.174-.3-.093-.559.167-.657a.742.742,0,0,1,.265-.044q9.794,0,19.592-.008a.616.616,0,0,1,.261.05.611.611,0,0,1,.269.233Zm-16.668-2.165a.431.431,0,0,0,.151.028.459.459,0,0,0,.412-.3c.028-.064.051-.131.076-.2a6.149,6.149,0,0,1,4.164-3.758,9.925,9.925,0,0,1,1.237-.218.468.468,0,0,0,.45-.485.461.461,0,0,0-.478-.419c-.014,0-.034,0-.056,0A7.082,7.082,0,0,0-790,932.977a7.219,7.219,0,0,0-.442,1A.433.433,0,0,0-790.171,934.552Z" transform="translate(813.624 -885.081)" fill="#155ebd"/></g></g></svg>