<svg xmlns="http://www.w3.org/2000/svg" width="72" height="51" viewBox="0 0 72 51"><g transform="translate(-337.328 -2377.094)"><g transform="translate(342.308 2377)"><path d="M0,0H33V5H0Z" transform="translate(17.019 46.094)" fill="#155ebd"/><path d="M0,0H5V4H0Z" transform="translate(31.019 42.094)" fill="#155ebd"/><path d="M6,0H61a6,6,0,0,1,6,6V36a6,6,0,0,1-6,6H6a6,6,0,0,1-6-6V6A6,6,0,0,1,6,0Z" transform="translate(0.019 0.094)" fill="#155ebd"/></g><path d="M3,0h8a3,3,0,0,1,3,3V18a3,3,0,0,1-3,3H3a3,3,0,0,1-3-3V3A3,3,0,0,1,3,0Z" transform="translate(388.328 2407.094)" fill="#2e2e2e"/><path d="M5,0H19a5,5,0,0,1,5,5V31a5,5,0,0,1-5,5H5a5,5,0,0,1-5-5V5A5,5,0,0,1,5,0Z" transform="translate(337.328 2392.094)" fill="#2e2e2e"/></g></svg>