<svg xmlns="http://www.w3.org/2000/svg" width="69.33" height="54.892" viewBox="0 0 69.33 54.892"><g transform="translate(-109.31 -254.441)"><g transform="translate(109.31 254.441)"><g transform="translate(0 0)"><path d="M242.124,430.271a16.593,16.593,0,0,0-11.014-6.534,2.573,2.573,0,0,0-.9-3.048,2.486,2.486,0,0,0-2.793-.038c-.979.646-1.283,1.614-.955,3.1a16.517,16.517,0,0,0-9.651,4.926A16.222,16.222,0,0,0,213,434.928a2.779,2.779,0,0,0,2.656,3.629h26.269a2.79,2.79,0,0,0,2.639-3.685A15.994,15.994,0,0,0,242.124,430.271Zm-14.176-1.682a18.749,18.749,0,0,0-2.3.407,11.422,11.422,0,0,0-7.734,6.981c-.049.119-.09.244-.143.364a.85.85,0,0,1-.767.548.813.813,0,0,1-.28-.051.8.8,0,0,1-.5-1.075,13.659,13.659,0,0,1,.82-1.853,13.157,13.157,0,0,1,10.753-6.992l.1-.009a.84.84,0,1,1,.052,1.679Z" transform="translate(-194.125 -390.246)" fill="#2e2e2e"/><path d="M165.245,303.283q-.435.059-.873.1a1.037,1.037,0,0,1-1.134-.919h0a19.367,19.367,0,0,0-14.2-16.716,5.021,5.021,0,0,0-2.082-3.086,5.2,5.2,0,0,0-5.845-.08,4.979,4.979,0,0,0-2.18,3.162A19.369,19.369,0,0,0,124.7,302.45l-.02.181a1.035,1.035,0,0,1-1.027.919h-.91a13.04,13.04,0,0,1-13.327-11.383.809.809,0,0,0-.109-.235v-2.71c.1-.5.194-1.013.306-1.516a13.039,13.039,0,0,1,10.692-10.013,3.906,3.906,0,0,0,.389-.087c.226-2.089.282-4.107.684-6.053a21.624,21.624,0,0,1,42.235-.291.676.676,0,0,0,.7.628,15.824,15.824,0,0,1,.926,31.391Z" transform="translate(-109.31 -254.441)" fill="#155ebd"/></g></g><path d="M233.268,532.035v.518a7.507,7.507,0,0,1-1.831,2.262,6.735,6.735,0,0,1-4.3,1.446q-8.745-.006-17.489,0c-2.959,0-5.917.042-8.874-.014a6.356,6.356,0,0,1-5.69-3.422c-.323-.566-.174-1.039.31-1.221a1.358,1.358,0,0,1,.491-.081q18.2-.006,36.4-.016a1.115,1.115,0,0,1,.987.526Z" transform="translate(-70.115 -226.944)" fill="#2e2e2e"/></g></svg>