<svg xmlns="http://www.w3.org/2000/svg" width="50.653" height="50.651" viewBox="0 0 50.653 50.651"><g transform="translate(-121.727 -722.276)"><g transform="translate(121.727 722.276)"><path d="M280.112,897.647h-27.5a.91.91,0,0,0-.171-.085,3.624,3.624,0,0,1-2.916-3.673q-.015-12.068,0-24.135a3.647,3.647,0,0,1,3.792-3.762q13.056-.007,26.113,0a3.686,3.686,0,0,1,3.847,3.868c.005,2.456,0,4.913,0,7.369q0,8.309,0,16.617a3.672,3.672,0,0,1-2.934,3.715A1.973,1.973,0,0,0,280.112,897.647Z" transform="translate(-232.627 -846.996)" fill="#155ebd"/><path d="M121.727,731.872v-6.529a.834.834,0,0,0,.089-.166,3.677,3.677,0,0,1,3.746-2.9q21.49,0,42.98,0a3.685,3.685,0,0,1,3.835,3.831c.006,1.6,0,3.2,0,4.8a3.719,3.719,0,0,1-4.032,4.033H151.974q-13.181,0-26.361,0a3.685,3.685,0,0,1-3.8-2.9A.827.827,0,0,0,121.727,731.872Z" transform="translate(-121.727 -722.276)"/><path d="M121.727,871.428c.1-.379.184-.763.3-1.136a6.335,6.335,0,1,1-.21,2.992,1.853,1.853,0,0,0-.092-.273Z" transform="translate(-121.727 -846.893)"/><path d="M121.727,1015.142c.086-.331.163-.665.26-.993a6.329,6.329,0,1,1,7.135,8.023,1.815,1.815,0,0,0-.272.092h-1.583a1.234,1.234,0,0,0-.223-.086,6.328,6.328,0,0,1-5.17-4.89c-.044-.189-.1-.376-.146-.564Z" transform="translate(-121.727 -971.614)" fill="#155ebd"/></g></g></svg>