<svg xmlns="http://www.w3.org/2000/svg" width="54.147" height="54.176" viewBox="0 0 54.147 54.176"><g transform="translate(690.701 -143.734)"><g transform="translate(-690.701 143.734)"><path d="M-641.674,161.834l-5.021-5.027c-.187-.187-.37-.379-.562-.56a1.586,1.586,0,0,0-2.277-.024,1.582,1.582,0,0,0,.051,2.275q2.551,2.574,5.125,5.126a3.8,3.8,0,0,0,.433.331l-3.607,3.61c-1.289-1.3-2.607-2.616-3.921-3.942a1.635,1.635,0,0,0-1.519-.557,1.51,1.51,0,0,0-1.224,1.045,1.558,1.558,0,0,0,.431,1.694q1.792,1.8,3.592,3.591a4.62,4.62,0,0,0,.4.327l-3.675,3.651a1.8,1.8,0,0,0-.269-.419c-1.677-1.69-3.366-3.368-5.044-5.057a1.592,1.592,0,0,0-1.731-.472,1.578,1.578,0,0,0-.531,2.7q2.533,2.555,5.089,5.087a2.9,2.9,0,0,0,.44.31l-3.6,3.6c-.068-.062-.2-.171-.315-.289q-1.8-1.794-3.593-3.589a1.631,1.631,0,0,0-2.392-.16,1.607,1.607,0,0,0,.135,2.387c1.308,1.309,2.621,2.613,3.911,3.9l-3.577,3.514c-.063-.06-.2-.189-.337-.323-1.71-1.707-3.409-3.425-5.132-5.119a1.577,1.577,0,0,0-2.711.691,1.62,1.62,0,0,0,.536,1.621q2.53,2.52,5.053,5.048a4.673,4.673,0,0,0,.411.334l-3.567,3.573c-.074-.067-.2-.176-.325-.3q-1.8-1.793-3.594-3.589a1.6,1.6,0,0,0-2.387-.157,1.6,1.6,0,0,0,.14,2.389c1.306,1.31,2.616,2.617,3.944,3.944-.093.115-.159.215-.241.3q-2.13,2.135-4.266,4.264a1.616,1.616,0,0,1-2.544-.024q-5.072-5.066-10.138-10.138a1.72,1.72,0,0,1,0-2.6q20.089-20.091,40.18-40.179a1.723,1.723,0,0,1,2.6,0q5.054,5.047,10.1,10.1a1.637,1.637,0,0,1,.018,2.621C-638.658,158.824-640.143,160.3-641.674,161.834Z" transform="translate(690.68 -143.989)" fill="#155ebd"/><path d="M-686.605,159.048c-1.7-1.607-3.537-3.2-3.958-5.749-.8-4.856,1.979-8.62,6.284-9.409a7.488,7.488,0,0,1,6.818,1.907c.711.681,1.379,1.408,2.032,2.078Z" transform="translate(690.701 -143.734)"/><path d="M-331.522,513.491l10.354-10.354a1.441,1.441,0,0,1,.1.187q2.731,6.814,5.454,13.631a1.548,1.548,0,0,1-1.1,2.179,1.8,1.8,0,0,1-.977-.08q-6.874-2.723-13.732-5.485A.457.457,0,0,1-331.522,513.491Z" transform="translate(369.609 -465.026)"/><path d="M-554.876,212.311l-4.323,4.331-6.323-6.325,4.361-4.3Z" transform="translate(578.796 -199.414)"/><path d="M-618.227,275.419l-4.333,4.33-6.329-6.329,4.349-4.318Z" transform="translate(635.443 -255.808)"/><path d="M-332.857,433.706l-4.335,4.32-5.187-5.191,4.326-4.328Z" transform="translate(379.315 -398.31)"/><path d="M-406.283,496.609l4.329-4.327,5.159,5.145-4.341,4.337Z" transform="translate(436.443 -455.322)"/></g></g></svg>