<svg xmlns="http://www.w3.org/2000/svg" width="58.709" height="50.651" viewBox="0 0 58.709 50.651"><g transform="translate(340.911 -769.017)"><g transform="translate(-340.911 769.017)"><path d="M-340.911,971.759H-330.2c.379,1.524.655,2.988,1.111,4.394a17.552,17.552,0,0,0,4.272,6.9,1.715,1.715,0,0,1,.511,1.922,2.261,2.261,0,0,1-.5.752q-2.478,2.508-4.982,4.99a1.734,1.734,0,0,1-2.709-.041,29.173,29.173,0,0,1-8.156-16.319c-.1-.636-.173-1.276-.259-1.915Z" transform="translate(340.911 -940.702)" fill="#155ebd"/><path d="M-340.911,850.307c.191-1.2.337-2.412.582-3.6a28.787,28.787,0,0,1,6.6-13.27,2.547,2.547,0,0,0,.158-.222l7.676,7.7A18.543,18.543,0,0,0-330.057,851h-10.854Z" transform="translate(340.911 -823.378)" fill="#155ebd"/><path d="M-184.5,930.808a5.4,5.4,0,0,1,3.433-5.03,5.206,5.206,0,0,1,5.914,1.392c1.593,1.923,3.1,3.929,4.511,5.99,2.447,3.576,4.8,7.215,7.159,10.852a2.325,2.325,0,0,1,.368,1.438,1.684,1.684,0,0,1-2.7,1.06c-1.707-1.087-3.421-2.164-5.093-3.3q-5.11-3.484-10.173-7.039a16.578,16.578,0,0,1-1.715-1.43A5.265,5.265,0,0,1-184.5,930.808Z" transform="translate(208.458 -901.44)" fill="#2e2e2e"/><path d="M-137.884,779.873V769.017a29.176,29.176,0,0,1,17.715,7.314l-7.675,7.675A18.492,18.492,0,0,0-137.884,779.873Z" transform="translate(168.985 -769.017)" fill="#155ebd"/><path d="M-47.728,833.663a29.214,29.214,0,0,1,7.308,17.672H-51.275a18.477,18.477,0,0,0-4.116-9.977Z" transform="translate(99.129 -823.76)" fill="#155ebd"/><path d="M-268.6,784.011l-7.667-7.68a29.176,29.176,0,0,1,17.695-7.313V779.87A18.548,18.548,0,0,0-268.6,784.011Z" transform="translate(286.165 -769.018)" fill="#155ebd"/><path d="M-28.3,971.976a29.194,29.194,0,0,1-2.035,9.174,29.193,29.193,0,0,1-6.32,9.663,1.768,1.768,0,0,1-2.83.024c-.513-.509-1.028-1.016-1.584-1.565.178-.113.3-.192.422-.267a5.133,5.133,0,0,0,1.755-7.053c-.613-1.033-1.3-2.024-1.927-3.049a.751.751,0,0,1-.073-.6,19.268,19.268,0,0,0,1.729-6.2c0-.034.034-.064.067-.125Z" transform="translate(86.997 -940.886)" fill="#155ebd"/></g></g></svg>