<svg xmlns="http://www.w3.org/2000/svg" width="169.38" height="36.266" viewBox="0 0 169.38 36.266"><g transform="translate(-1233.507 -393.964)"><path d="M-1153.564,342.431l.489.323a10.791,10.791,0,0,1,4.273,5.064,9.582,9.582,0,0,1-.873,8.972,11.479,11.479,0,0,1-6.395,4.868,13.88,13.88,0,0,1-4.394.709q-6.648,0-13.3,0h-.5V326.633c.153-.01.293-.026.433-.026,3.693,0,7.386-.014,11.079.012a11.714,11.714,0,0,1,7.04,2.224,9.689,9.689,0,0,1,4.03,6.549,8.785,8.785,0,0,1-1.236,6.038c-.1.161-.2.322-.3.479S-1153.42,342.219-1153.564,342.431Zm-14.563,13.878c.12.006.247.018.375.018,2.389,0,4.779.012,7.168-.008a9.923,9.923,0,0,0,1.808-.182,6.075,6.075,0,0,0,3.9-2.463,3.689,3.689,0,0,0-.092-4.556,5.332,5.332,0,0,0-2.374-1.76,13.589,13.589,0,0,0-4.77-.779c-1.853-.02-3.707-.005-5.56,0-.155,0-.31.014-.452.02C-1168.236,347-1168.238,355.906-1168.127,356.309Zm0-15.86a1.766,1.766,0,0,0,.28.04c2.011-.018,4.023,0,6.032-.073a4.468,4.468,0,0,0,3.334-1.628,3.237,3.237,0,0,0,.158-4.087,4.489,4.489,0,0,0-2.167-1.6,7.876,7.876,0,0,0-2.6-.41c-1.548-.017-3.1-.006-4.646,0-.138,0-.277.023-.4.035C-1168.239,333.2-1168.227,340.08-1168.129,340.448Z" transform="translate(2407.766 67.861)" fill="#244293"/><path d="M-866.795,362.364V326.629c.171-.01.312-.026.453-.026,3.693,0,7.386-.016,11.079.013a11.68,11.68,0,0,1,7.141,2.314,9.657,9.657,0,0,1,3.816,5.97,8.83,8.83,0,0,1-1.051,6.36c-.225.385-.47.758-.729,1.174l.6.408a10.757,10.757,0,0,1,3.849,4.33,9.589,9.589,0,0,1-.6,9.643,11.423,11.423,0,0,1-6.367,4.837,13.99,13.99,0,0,1-4.436.712h-13.755Zm6.075-6.063c.187.009.329.021.47.021,2.345,0,4.69.013,7.035-.008a10.42,10.42,0,0,0,1.895-.183,6.036,6.036,0,0,0,3.976-2.568,3.68,3.68,0,0,0-.06-4.309,5.437,5.437,0,0,0-2.76-2.006,13.576,13.576,0,0,0-4.267-.67c-1.968-.03-3.937-.009-5.906-.007a3.4,3.4,0,0,0-.384.045Zm.01-15.868a2,2,0,0,0,.317.051c2.025-.019,4.051-.005,6.074-.076a4.436,4.436,0,0,0,3.206-1.524,3.255,3.255,0,0,0,.091-4.391,4.58,4.58,0,0,0-2.047-1.407,8.165,8.165,0,0,0-2.646-.4c-1.5-.015-3.01-.005-4.515,0-.154,0-.308.022-.48.035Z" transform="translate(2155.98 67.865)" fill="#244293"/><path d="M-1010.285,354.057h13.043a58.489,58.489,0,0,1,.04,6.017h-25c.122-.177.214-.318.314-.452q5.526-7.442,11.05-14.886c1.428-1.931,2.823-3.887,4.216-5.844a13.3,13.3,0,0,0,1.565-2.8,4.6,4.6,0,0,0,.364-2.71,4.086,4.086,0,0,0-3.1-3.231,4.891,4.891,0,0,0-3.542.41,9.4,9.4,0,0,0-2.964,2.3c-.4.455-.783.93-1.174,1.4-.091.108-.186.214-.3.346l-4.682-3.669c.005-.063,0-.1.011-.116a25.272,25.272,0,0,1,3.235-3.735,12.854,12.854,0,0,1,5.963-3.034,10.615,10.615,0,0,1,12.409,7.736,10.479,10.479,0,0,1-.523,6.424,20.565,20.565,0,0,1-2.507,4.5c-1.957,2.674-3.946,5.325-5.923,7.984q-1.075,1.446-2.156,2.888C-1010.044,353.708-1010.13,353.837-1010.285,354.057Z" transform="translate(2283.248 70.126)" fill="#244293"/><path d="M-674.413,419.4h-3.574v-9.945l-.094-.037c-.789,1.076-1.558,2.167-2.338,3.249q-1.192,1.656-2.378,3.317l-2.4,3.341c-2.419-3.339-4.8-6.654-7.188-9.959l-.086.03v10.009c-1.2.048-2.367.013-3.52.023-.1-.364-.111-20.835-.008-21.337l10.8,15.026,10.715-15,.067.027Z" transform="translate(2016.167 9.318)"/><path d="M-442.188,420.488h-.428c-1.144,0-2.288-.012-3.432.007a.827.827,0,0,1-.76-.366c-1.488-1.977-2.994-3.941-4.494-5.909q-.974-1.277-1.949-2.554a.984.984,0,0,0-.346-.305v9.1h-3.6v-21.04c.1-.009.211-.027.323-.028,2.548,0,5.1-.023,7.645.006a7.439,7.439,0,0,1,5.259,2.13,5.9,5.9,0,0,1-1.852,9.787,8.873,8.873,0,0,1-2.257.6c-.1.014-.192.031-.369.06l6.326,8.416Zm-11.4-11.841c.109.013.179.028.248.028,1.1,0,2.2.019,3.3-.006a7.08,7.08,0,0,0,2.34-.4,3.178,3.178,0,0,0,1.568-1.18,2.121,2.121,0,0,0,.368-1.645A2.788,2.788,0,0,0-447.3,403.5a4.221,4.221,0,0,0-2.09-.484c-1.287-.007-2.575,0-3.862,0a2.458,2.458,0,0,0-.334.046Z" transform="translate(1820.554 8.259)"/><path d="M-551.642,420.44v-20.99c.3-.091,12.638-.122,13.288-.03V403h-9.667v5.07h7.267v3.642h-7.268v5.121c1.068.044,2.132.013,3.2.019s2.143,0,3.215,0h3.2a22.586,22.586,0,0,1,.047,3.585Z" transform="translate(1897.897 8.276)"/><g transform="translate(1380.552 407.97)"><path d="M-362.243,421.941l6.826-10.379-6.805-10.334h4.174l6.8,10.33c-.08.131-.158.265-.244.395q-3.206,4.852-6.41,9.707a.626.626,0,0,1-.6.326c-1.1-.015-2.2-.005-3.3-.008C-361.925,421.978-362.049,421.958-362.243,421.941Z" transform="translate(362.243 -401.22)" fill="#244293"/><path d="M-288.673,421.913c-.2.015-.313.03-.425.031-1.115,0-2.23,0-3.346.005a.6.6,0,0,1-.575-.289q-3.261-4.974-6.538-9.938c-.024-.036-.04-.076-.081-.157l6.865-10.379h4.133c-.107.174-.183.307-.267.435q-3.149,4.788-6.307,9.57a.614.614,0,0,0,0,.8q3.087,4.647,6.146,9.313C-288.945,421.486-288.831,421.668-288.673,421.913Z" transform="translate(310.975 -401.186)" fill="#244293"/></g></g></svg>