<svg xmlns="http://www.w3.org/2000/svg" width="30.662" height="38.721" viewBox="0 0 30.662 38.721"><g transform="translate(527.95 -782.129)"><g transform="translate(-527.95 782.129)"><path d="M-522.838,823.655c0,.622,0,1.19,0,1.757a2.21,2.21,0,0,0,2.359,2.34q5.5,0,10.993,0a2.186,2.186,0,0,0,2.347-2.339c0-.567,0-1.134,0-1.73.132-.011.24-.026.348-.027.847,0,1.693,0,2.54,0a2.164,2.164,0,0,1,2.243,2.249c.007,2.388,0,4.776,0,7.164v13.074a6.147,6.147,0,0,0-5.065,1.935,5.9,5.9,0,0,0-1.6,3.364,6.186,6.186,0,0,0,4.312,6.689c-.165.017-.251.035-.338.035q-10.5,0-21,0a2.136,2.136,0,0,1-2.252-2.266q0-14.992,0-29.984a2.145,2.145,0,0,1,2.261-2.26C-524.753,823.653-523.821,823.655-522.838,823.655Zm11.044,14.929h5.307a2.6,2.6,0,0,0,.341-.008.592.592,0,0,0,.549-.615.583.583,0,0,0-.556-.57,2.361,2.361,0,0,0-.3-.006h-10.69a1.593,1.593,0,0,0-.377.018.562.562,0,0,0-.472.563.551.551,0,0,0,.443.583,1.617,1.617,0,0,0,.413.032Q-514.467,838.586-511.795,838.584Zm-.028-5.82h5.306c.633,0,.919-.181.923-.585s-.291-.6-.912-.6h-10.573a2.986,2.986,0,0,0-.341.01.594.594,0,0,0-.579.621.594.594,0,0,0,.605.556c.1.006.2,0,.3,0Zm.038,10.441h-5.306c-.114,0-.228,0-.341,0a.584.584,0,0,0-.569.588.586.586,0,0,0,.58.579c.088.007.177,0,.265,0h10.725a1.865,1.865,0,0,0,.377-.021.538.538,0,0,0,.453-.572.543.543,0,0,0-.463-.565,1.9,1.9,0,0,0-.378-.016Zm-11.19-5.082a5.33,5.33,0,0,0-.367-.418.591.591,0,0,0-.847-.018.577.577,0,0,0,0,.845c.221.242.459.468.693.7.4.392.669.4,1.067,0q.835-.824,1.658-1.659c.336-.339.369-.7.1-.957s-.609-.214-.931.107C-522.043,837.167-522.48,837.62-522.974,838.123Zm.009-5.8c-.151-.175-.242-.3-.351-.4a.585.585,0,0,0-.872-.044.592.592,0,0,0,.028.876c.232.249.475.488.721.723a.609.609,0,0,0,.96,0q.891-.875,1.763-1.767a.806.806,0,0,0,.209-.348.541.541,0,0,0-.279-.642.561.561,0,0,0-.724.115C-521.981,831.3-522.443,831.785-522.966,832.321Zm-.015,11.63a4.667,4.667,0,0,0-.371-.44.583.583,0,0,0-.846-.005.584.584,0,0,0,.021.847c.222.241.46.467.694.7.38.373.664.378,1.037.01q.848-.837,1.687-1.683c.32-.323.359-.673.113-.93-.267-.28-.61-.251-.955.1C-522.046,842.987-522.482,843.441-522.981,843.951Z" transform="translate(527.95 -819.447)" fill="#155ebd"/><path d="M-324.96,1064.051a5.3,5.3,0,0,1-5.314-5.324,5.3,5.3,0,0,1,5.324-5.316,5.3,5.3,0,0,1,5.313,5.325A5.3,5.3,0,0,1-324.96,1064.051Zm-.78-4.822c-.227-.25-.4-.467-.6-.658a.576.576,0,0,0-.872-.018.579.579,0,0,0,.03.847q.494.522,1.016,1.016a.586.586,0,0,0,.9,0c.2-.187.395-.39.591-.586.642-.642,1.29-1.278,1.922-1.929a.587.587,0,0,0-.136-1,.613.613,0,0,0-.743.2C-324.311,1057.789-324.994,1058.477-325.74,1059.229Z" transform="translate(350.3 -1025.929)" fill="#155ebd"/><path d="M-464.943,785.5a2.523,2.523,0,0,1,1.036-2.929,2.339,2.339,0,0,1,2.681-.038,2.514,2.514,0,0,1,1.1,2.967h1c.91,0,1.819,0,2.729,0a.838.838,0,0,1,.924.913c.009.581.007,1.162,0,1.744a1.421,1.421,0,0,1-1.431,1.494c-.1.006-.2,0-.3,0q-5.326,0-10.651,0a3.3,3.3,0,0,1-.6-.045,1.347,1.347,0,0,1-1.116-1.3c-.017-.631-.011-1.263,0-1.9a.82.82,0,0,1,.918-.911c1.1,0,2.2,0,3.3,0Zm2.389,0a6.6,6.6,0,0,1,.755.006c.286.033.407-.11.5-.344a1.334,1.334,0,0,0-.382-1.508,1.352,1.352,0,0,0-1.553-.11,1.332,1.332,0,0,0-.591,1.436c.083.365.246.589.668.526A4.116,4.116,0,0,1-462.554,785.5Z" transform="translate(475.502 -782.129)" fill="#155ebd"/></g></g></svg>